G04 #@! TF.GenerationSoftware,KiCad,Pcbnew,(5.0.0)*
G04 #@! TF.CreationDate,2018-11-25T22:53:08-05:00*
G04 #@! TF.ProjectId,Blink_Badge,426C696E6B5F42616467652E6B696361,B*
G04 #@! TF.SameCoordinates,Original*
G04 #@! TF.FileFunction,Paste,Top*
G04 #@! TF.FilePolarity,Positive*
%FSLAX46Y46*%
G04 Gerber Fmt 4.6, Leading zero omitted, Abs format (unit mm)*
G04 Created by KiCad (PCBNEW (5.0.0)) date 11/25/18 22:53:08*
%MOMM*%
%LPD*%
G01*
G04 APERTURE LIST*
%ADD10C,0.100000*%
%ADD11R,2.500000X1.200000*%
%ADD12R,2.000000X1.600000*%
%ADD13C,1.600000*%
%ADD14C,0.150000*%
%ADD15C,1.700000*%
%ADD16R,2.000000X1.700000*%
%ADD17R,1.700000X2.000000*%
%ADD18R,0.800000X1.900000*%
%ADD19C,0.800000*%
G04 APERTURE END LIST*
D10*
X159900000Y-140450000D02*
X160475000Y-140025000D01*
X114100000Y-140075000D02*
X114625000Y-140475000D01*
X100250000Y-96350000D02*
X100050000Y-96975000D01*
X136950000Y-69700000D02*
X137625000Y-69700000D01*
X174250000Y-96350000D02*
X174475000Y-97025000D01*
X174250000Y-96350000D02*
X146290000Y-96345000D01*
X137290000Y-123995000D02*
X114625000Y-140475000D01*
X159900000Y-140450000D02*
X137290000Y-123995000D01*
X151840000Y-113445000D02*
X160475000Y-140025000D01*
X174475000Y-97025000D02*
X151840000Y-113445000D01*
X122740000Y-113445000D02*
X114100000Y-140075000D01*
X100050000Y-96975000D02*
X122740000Y-113445000D01*
X128290000Y-96345000D02*
X100250000Y-96350000D01*
X136950000Y-69700000D02*
X128290000Y-96345000D01*
X137625000Y-69700000D02*
X146290000Y-96345000D01*
D11*
G04 #@! TO.C,S1*
X134540000Y-117500000D03*
X134540000Y-115000000D03*
X134540000Y-112500000D03*
X140040000Y-112500000D03*
X140040000Y-115000000D03*
X140040000Y-117500000D03*
G04 #@! TD*
D12*
G04 #@! TO.C,C1*
X137300000Y-94900000D03*
X133300000Y-94900000D03*
G04 #@! TD*
D13*
G04 #@! TO.C,C2*
X149281966Y-100697887D03*
D14*
G36*
X148212104Y-99994044D02*
X149733794Y-99499617D01*
X150351828Y-101401730D01*
X148830138Y-101896157D01*
X148212104Y-99994044D01*
X148212104Y-99994044D01*
G37*
D13*
X150518034Y-104502113D03*
D14*
G36*
X149448172Y-103798270D02*
X150969862Y-103303843D01*
X151587896Y-105205956D01*
X150066206Y-105700383D01*
X149448172Y-103798270D01*
X149448172Y-103798270D01*
G37*
G04 #@! TD*
D13*
G04 #@! TO.C,C3*
X145681966Y-119775571D03*
D14*
G36*
X146020755Y-118540572D02*
X146961211Y-119834999D01*
X145343177Y-121010570D01*
X144402721Y-119716143D01*
X146020755Y-118540572D01*
X146020755Y-118540572D01*
G37*
D13*
X148918034Y-117424429D03*
D14*
G36*
X149256823Y-116189430D02*
X150197279Y-117483857D01*
X148579245Y-118659428D01*
X147638789Y-117365001D01*
X149256823Y-116189430D01*
X149256823Y-116189430D01*
G37*
G04 #@! TD*
D13*
G04 #@! TO.C,C4*
X132118034Y-122175571D03*
D14*
G36*
X133397279Y-122116143D02*
X132456823Y-123410570D01*
X130838789Y-122234999D01*
X131779245Y-120940572D01*
X133397279Y-122116143D01*
X133397279Y-122116143D01*
G37*
D13*
X128881966Y-119824429D03*
D14*
G36*
X130161211Y-119765001D02*
X129220755Y-121059428D01*
X127602721Y-119883857D01*
X128543177Y-118589430D01*
X130161211Y-119765001D01*
X130161211Y-119765001D01*
G37*
G04 #@! TD*
D13*
G04 #@! TO.C,C5*
X124118034Y-104397887D03*
D14*
G36*
X124569862Y-105596157D02*
X123048172Y-105101730D01*
X123666206Y-103199617D01*
X125187896Y-103694044D01*
X124569862Y-105596157D01*
X124569862Y-105596157D01*
G37*
D13*
X122881966Y-108202113D03*
D14*
G36*
X123333794Y-109400383D02*
X121812104Y-108905956D01*
X122430138Y-107003843D01*
X123951828Y-107498270D01*
X123333794Y-109400383D01*
X123333794Y-109400383D01*
G37*
G04 #@! TD*
D15*
G04 #@! TO.C,R7*
X120881966Y-127574429D03*
D14*
G36*
X119573332Y-127674308D02*
X120572566Y-126298979D01*
X122190600Y-127474550D01*
X121191366Y-128849879D01*
X119573332Y-127674308D01*
X119573332Y-127674308D01*
G37*
D15*
X124118034Y-129925571D03*
D14*
G36*
X122809400Y-130025450D02*
X123808634Y-128650121D01*
X125426668Y-129825692D01*
X124427434Y-131201021D01*
X122809400Y-130025450D01*
X122809400Y-130025450D01*
G37*
G04 #@! TD*
D16*
G04 #@! TO.C,R1*
X135250000Y-83750000D03*
X139250000Y-83750000D03*
G04 #@! TD*
D15*
G04 #@! TO.C,R3*
X161618034Y-102902113D03*
D14*
G36*
X162735449Y-103590505D02*
X161118653Y-104115834D01*
X160500619Y-102213721D01*
X162117415Y-101688392D01*
X162735449Y-103590505D01*
X162735449Y-103590505D01*
G37*
D15*
X160381966Y-99097887D03*
D14*
G36*
X161499381Y-99786279D02*
X159882585Y-100311608D01*
X159264551Y-98409495D01*
X160881347Y-97884166D01*
X161499381Y-99786279D01*
X161499381Y-99786279D01*
G37*
G04 #@! TD*
D15*
G04 #@! TO.C,R4*
X158402113Y-104081966D03*
D14*
G36*
X157713721Y-105199381D02*
X157188392Y-103582585D01*
X159090505Y-102964551D01*
X159615834Y-104581347D01*
X157713721Y-105199381D01*
X157713721Y-105199381D01*
G37*
D15*
X154597887Y-105318034D03*
D14*
G36*
X153909495Y-106435449D02*
X153384166Y-104818653D01*
X155286279Y-104200619D01*
X155811608Y-105817415D01*
X153909495Y-106435449D01*
X153909495Y-106435449D01*
G37*
G04 #@! TD*
D15*
G04 #@! TO.C,R5*
X150631966Y-129925571D03*
D14*
G36*
X150322566Y-131201021D02*
X149323332Y-129825692D01*
X150941366Y-128650121D01*
X151940600Y-130025450D01*
X150322566Y-131201021D01*
X150322566Y-131201021D01*
G37*
D15*
X153868034Y-127574429D03*
D14*
G36*
X153558634Y-128849879D02*
X152559400Y-127474550D01*
X154177434Y-126298979D01*
X155176668Y-127674308D01*
X153558634Y-128849879D01*
X153558634Y-128849879D01*
G37*
G04 #@! TD*
D15*
G04 #@! TO.C,R9*
X112881966Y-102902113D03*
D14*
G36*
X112382585Y-101688392D02*
X113999381Y-102213721D01*
X113381347Y-104115834D01*
X111764551Y-103590505D01*
X112382585Y-101688392D01*
X112382585Y-101688392D01*
G37*
D15*
X114118034Y-99097887D03*
D14*
G36*
X113618653Y-97884166D02*
X115235449Y-98409495D01*
X114617415Y-100311608D01*
X113000619Y-99786279D01*
X113618653Y-97884166D01*
X113618653Y-97884166D01*
G37*
G04 #@! TD*
D15*
G04 #@! TO.C,R8*
X125275571Y-121581966D03*
D14*
G36*
X125175692Y-120273332D02*
X126551021Y-121272566D01*
X125375450Y-122890600D01*
X124000121Y-121891366D01*
X125175692Y-120273332D01*
X125175692Y-120273332D01*
G37*
D15*
X122924429Y-124818034D03*
D14*
G36*
X122824550Y-123509400D02*
X124199879Y-124508634D01*
X123024308Y-126126668D01*
X121648979Y-125127434D01*
X122824550Y-123509400D01*
X122824550Y-123509400D01*
G37*
G04 #@! TD*
D15*
G04 #@! TO.C,R6*
X148575571Y-127118034D03*
D14*
G36*
X147300121Y-126808634D02*
X148675450Y-125809400D01*
X149851021Y-127427434D01*
X148475692Y-128426668D01*
X147300121Y-126808634D01*
X147300121Y-126808634D01*
G37*
D15*
X146224429Y-123881966D03*
D14*
G36*
X144948979Y-123572566D02*
X146324308Y-122573332D01*
X147499879Y-124191366D01*
X146124550Y-125190600D01*
X144948979Y-123572566D01*
X144948979Y-123572566D01*
G37*
G04 #@! TD*
D15*
G04 #@! TO.C,R10*
X121302113Y-101418034D03*
D14*
G36*
X122515834Y-100918653D02*
X121990505Y-102535449D01*
X120088392Y-101917415D01*
X120613721Y-100300619D01*
X122515834Y-100918653D01*
X122515834Y-100918653D01*
G37*
D15*
X117497887Y-100181966D03*
D14*
G36*
X118711608Y-99682585D02*
X118186279Y-101299381D01*
X116284166Y-100681347D01*
X116809495Y-99064551D01*
X118711608Y-99682585D01*
X118711608Y-99682585D01*
G37*
G04 #@! TD*
D17*
G04 #@! TO.C,R2*
X139300000Y-87300000D03*
X139300000Y-91300000D03*
G04 #@! TD*
D18*
G04 #@! TO.C,D1*
X137250000Y-76250000D03*
X138200000Y-79250000D03*
X136300000Y-79250000D03*
G04 #@! TD*
D19*
G04 #@! TO.C,D2*
X168176585Y-98536475D03*
D14*
G36*
X167396688Y-99210464D02*
X167149475Y-98449619D01*
X168956482Y-97862486D01*
X169203695Y-98623331D01*
X167396688Y-99210464D01*
X167396688Y-99210464D01*
G37*
D19*
X165616981Y-100367029D03*
D14*
G36*
X164837084Y-101041018D02*
X164589871Y-100280173D01*
X166396878Y-99693040D01*
X166644091Y-100453885D01*
X164837084Y-101041018D01*
X164837084Y-101041018D01*
G37*
D19*
X165029849Y-98560022D03*
D14*
G36*
X164249952Y-99234011D02*
X164002739Y-98473166D01*
X165809746Y-97886033D01*
X166056959Y-98646878D01*
X164249952Y-99234011D01*
X164249952Y-99234011D01*
G37*
G04 #@! TD*
D19*
G04 #@! TO.C,D3*
X155386888Y-131978079D03*
D14*
G36*
X154504885Y-131444627D02*
X155152099Y-130974399D01*
X156268891Y-132511531D01*
X155621677Y-132981759D01*
X154504885Y-131444627D01*
X154504885Y-131444627D01*
G37*
D19*
X153849756Y-133094870D03*
D14*
G36*
X152967753Y-132561418D02*
X153614967Y-132091190D01*
X154731759Y-133628322D01*
X154084545Y-134098550D01*
X152967753Y-132561418D01*
X152967753Y-132561418D01*
G37*
D19*
X156381678Y-134963525D03*
D14*
G36*
X155499675Y-134430073D02*
X156146889Y-133959845D01*
X157263681Y-135496977D01*
X156616467Y-135967205D01*
X155499675Y-134430073D01*
X155499675Y-134430073D01*
G37*
G04 #@! TD*
D19*
G04 #@! TO.C,D5*
X106323415Y-98536475D03*
D14*
G36*
X107350525Y-98449619D02*
X107103312Y-99210464D01*
X105296305Y-98623331D01*
X105543518Y-97862486D01*
X107350525Y-98449619D01*
X107350525Y-98449619D01*
G37*
D19*
X109470151Y-98560022D03*
D14*
G36*
X110497261Y-98473166D02*
X110250048Y-99234011D01*
X108443041Y-98646878D01*
X108690254Y-97886033D01*
X110497261Y-98473166D01*
X110497261Y-98473166D01*
G37*
D19*
X108883019Y-100367029D03*
D14*
G36*
X109910129Y-100280173D02*
X109662916Y-101041018D01*
X107855909Y-100453885D01*
X108103122Y-99693040D01*
X109910129Y-100280173D01*
X109910129Y-100280173D01*
G37*
G04 #@! TD*
D18*
G04 #@! TO.C,Q1*
X134300000Y-90300000D03*
X136200000Y-90300000D03*
X135250000Y-87300000D03*
G04 #@! TD*
D19*
G04 #@! TO.C,Q2*
X157026585Y-100236475D03*
D14*
G36*
X156246688Y-100910464D02*
X155999475Y-100149619D01*
X157806482Y-99562486D01*
X158053695Y-100323331D01*
X156246688Y-100910464D01*
X156246688Y-100910464D01*
G37*
D19*
X154466981Y-102067029D03*
D14*
G36*
X153687084Y-102741018D02*
X153439871Y-101980173D01*
X155246878Y-101393040D01*
X155494091Y-102153885D01*
X153687084Y-102741018D01*
X153687084Y-102741018D01*
G37*
D19*
X153879849Y-100260022D03*
D14*
G36*
X153099952Y-100934011D02*
X152852739Y-100173166D01*
X154659746Y-99586033D01*
X154906959Y-100346878D01*
X153099952Y-100934011D01*
X153099952Y-100934011D01*
G37*
G04 #@! TD*
D19*
G04 #@! TO.C,Q3*
X150686888Y-121628079D03*
D14*
G36*
X149804885Y-121094627D02*
X150452099Y-120624399D01*
X151568891Y-122161531D01*
X150921677Y-122631759D01*
X149804885Y-121094627D01*
X149804885Y-121094627D01*
G37*
D19*
X149149756Y-122744870D03*
D14*
G36*
X148267753Y-122211418D02*
X148914967Y-121741190D01*
X150031759Y-123278322D01*
X149384545Y-123748550D01*
X148267753Y-122211418D01*
X148267753Y-122211418D01*
G37*
D19*
X151681678Y-124613525D03*
D14*
G36*
X150799675Y-124080073D02*
X151446889Y-123609845D01*
X152563681Y-125146977D01*
X151916467Y-125617205D01*
X150799675Y-124080073D01*
X150799675Y-124080073D01*
G37*
G04 #@! TD*
D19*
G04 #@! TO.C,Q4*
X126218322Y-127113525D03*
D14*
G36*
X126453111Y-126109845D02*
X127100325Y-126580073D01*
X125983533Y-128117205D01*
X125336319Y-127646977D01*
X126453111Y-126109845D01*
X126453111Y-126109845D01*
G37*
D19*
X127213112Y-124128079D03*
D14*
G36*
X127447901Y-123124399D02*
X128095115Y-123594627D01*
X126978323Y-125131759D01*
X126331109Y-124661531D01*
X127447901Y-123124399D01*
X127447901Y-123124399D01*
G37*
D19*
X128750244Y-125244870D03*
D14*
G36*
X128985033Y-124241190D02*
X129632247Y-124711418D01*
X128515455Y-126248550D01*
X127868241Y-125778322D01*
X128985033Y-124241190D01*
X128985033Y-124241190D01*
G37*
G04 #@! TD*
D19*
G04 #@! TO.C,Q5*
X118833019Y-105867029D03*
D14*
G36*
X119860129Y-105780173D02*
X119612916Y-106541018D01*
X117805909Y-105953885D01*
X118053122Y-105193040D01*
X119860129Y-105780173D01*
X119860129Y-105780173D01*
G37*
D19*
X119420151Y-104060022D03*
D14*
G36*
X120447261Y-103973166D02*
X120200048Y-104734011D01*
X118393041Y-104146878D01*
X118640254Y-103386033D01*
X120447261Y-103973166D01*
X120447261Y-103973166D01*
G37*
D19*
X116273415Y-104036475D03*
D14*
G36*
X117300525Y-103949619D02*
X117053312Y-104710464D01*
X115246305Y-104123331D01*
X115493518Y-103362486D01*
X117300525Y-103949619D01*
X117300525Y-103949619D01*
G37*
G04 #@! TD*
D19*
G04 #@! TO.C,D4*
X118118322Y-134963525D03*
D14*
G36*
X118353111Y-133959845D02*
X119000325Y-134430073D01*
X117883533Y-135967205D01*
X117236319Y-135496977D01*
X118353111Y-133959845D01*
X118353111Y-133959845D01*
G37*
D19*
X119113112Y-131978079D03*
D14*
G36*
X119347901Y-130974399D02*
X119995115Y-131444627D01*
X118878323Y-132981759D01*
X118231109Y-132511531D01*
X119347901Y-130974399D01*
X119347901Y-130974399D01*
G37*
D19*
X120650244Y-133094870D03*
D14*
G36*
X120885033Y-132091190D02*
X121532247Y-132561418D01*
X120415455Y-134098550D01*
X119768241Y-133628322D01*
X120885033Y-132091190D01*
X120885033Y-132091190D01*
G37*
G04 #@! TD*
M02*
