G04 #@! TF.GenerationSoftware,KiCad,Pcbnew,(5.0.0)*
G04 #@! TF.CreationDate,2018-11-25T22:53:08-05:00*
G04 #@! TF.ProjectId,Blink_Badge,426C696E6B5F42616467652E6B696361,B*
G04 #@! TF.SameCoordinates,Original*
G04 #@! TF.FileFunction,Copper,L2,Bot,Signal*
G04 #@! TF.FilePolarity,Positive*
%FSLAX46Y46*%
G04 Gerber Fmt 4.6, Leading zero omitted, Abs format (unit mm)*
G04 Created by KiCad (PCBNEW (5.0.0)) date 11/25/18 22:53:08*
%MOMM*%
%LPD*%
G01*
G04 APERTURE LIST*
G04 #@! TA.AperFunction,NonConductor*
%ADD10C,0.100000*%
G04 #@! TD*
G04 #@! TA.AperFunction,SMDPad,CuDef*
%ADD11R,6.000000X6.000000*%
G04 #@! TD*
G04 #@! TA.AperFunction,BGAPad,CuDef*
%ADD12C,8.000000*%
G04 #@! TD*
G04 #@! TA.AperFunction,ViaPad*
%ADD13C,0.889000*%
G04 #@! TD*
G04 #@! TA.AperFunction,Conductor*
%ADD14C,0.500000*%
G04 #@! TD*
G04 #@! TA.AperFunction,Conductor*
%ADD15C,0.254000*%
G04 #@! TD*
G04 APERTURE END LIST*
D10*
X159900000Y-140450000D02*
X160475000Y-140025000D01*
X114100000Y-140075000D02*
X114625000Y-140475000D01*
X100250000Y-96350000D02*
X100050000Y-96975000D01*
X136950000Y-69700000D02*
X137625000Y-69700000D01*
X174250000Y-96350000D02*
X174475000Y-97025000D01*
X174250000Y-96350000D02*
X146290000Y-96345000D01*
X137290000Y-123995000D02*
X114625000Y-140475000D01*
X159900000Y-140450000D02*
X137290000Y-123995000D01*
X151840000Y-113445000D02*
X160475000Y-140025000D01*
X174475000Y-97025000D02*
X151840000Y-113445000D01*
X122740000Y-113445000D02*
X114100000Y-140075000D01*
X100050000Y-96975000D02*
X122740000Y-113445000D01*
X128290000Y-96345000D02*
X100250000Y-96350000D01*
X136950000Y-69700000D02*
X128290000Y-96345000D01*
X137625000Y-69700000D02*
X146290000Y-96345000D01*
D11*
G04 #@! TO.P,BT1,1*
G04 #@! TO.N,/+6V*
X122825000Y-105000000D03*
X151755000Y-105000000D03*
D12*
G04 #@! TO.P,BT1,2*
G04 #@! TO.N,GND*
X137290000Y-105000000D03*
G04 #@! TD*
D13*
G04 #@! TO.N,GND*
X129750000Y-118000000D03*
X144250000Y-118000000D03*
X127250000Y-104500000D03*
X137250000Y-97250000D03*
X147250000Y-104500000D03*
G04 #@! TO.N,Net-(C1-Pad1)*
X122800000Y-99750000D03*
X126375000Y-98625000D03*
G04 #@! TO.N,Net-(C2-Pad1)*
X139300000Y-93425000D03*
X148300000Y-98600000D03*
G04 #@! TO.N,Net-(C5-Pad1)*
X124100000Y-110500000D03*
X125000000Y-118600000D03*
G04 #@! TO.N,Net-(C4-Pad1)*
X133750000Y-120525000D03*
X142700000Y-120525000D03*
G04 #@! TO.N,Net-(C3-Pad1)*
X148925000Y-114725000D03*
X156575000Y-107075000D03*
G04 #@! TO.N,/+6V*
X143000000Y-115000000D03*
X131250000Y-115000000D03*
G04 #@! TD*
D14*
G04 #@! TO.N,GND*
X137250000Y-104960000D02*
X137290000Y-105000000D01*
X147250000Y-104500000D02*
X146750000Y-105000000D01*
G04 #@! TO.N,Net-(C1-Pad1)*
X123244499Y-99305501D02*
X125719499Y-99305501D01*
X122800000Y-99750000D02*
X123244499Y-99305501D01*
X125719499Y-99305501D02*
X126375000Y-98650000D01*
X126375000Y-98650000D02*
X126375000Y-98625000D01*
G04 #@! TO.N,Net-(C2-Pad1)*
X139300000Y-93425000D02*
X140625000Y-93425000D01*
X140625000Y-93425000D02*
X142225000Y-93425000D01*
X142225000Y-93425000D02*
X147400000Y-98600000D01*
X147400000Y-98600000D02*
X148300000Y-98600000D01*
G04 #@! TO.N,Net-(C5-Pad1)*
X124100000Y-110500000D02*
X124100000Y-117700000D01*
X124100000Y-117700000D02*
X125000000Y-118600000D01*
G04 #@! TO.N,Net-(C4-Pad1)*
X133750000Y-120525000D02*
X142700000Y-120525000D01*
G04 #@! TO.N,Net-(C3-Pad1)*
X148925000Y-114725000D02*
X156575000Y-107075000D01*
G04 #@! TO.N,/+6V*
X151750000Y-105005000D02*
X151755000Y-105000000D01*
X143000000Y-115000000D02*
X146500000Y-115000000D01*
X151755000Y-109745000D02*
X151755000Y-105000000D01*
X146500000Y-115000000D02*
X151755000Y-109745000D01*
X122825000Y-105000000D02*
X122825000Y-105625000D01*
X125600000Y-108400000D02*
X125600000Y-109000000D01*
X122825000Y-105625000D02*
X125600000Y-108400000D01*
X125600000Y-109000000D02*
X125600000Y-108600000D01*
X130805501Y-114555501D02*
X131250000Y-115000000D01*
X128880501Y-114555501D02*
X130805501Y-114555501D01*
X125600000Y-109000000D02*
X125600000Y-111275000D01*
X125600000Y-111275000D02*
X128880501Y-114555501D01*
G04 #@! TD*
D15*
G04 #@! TO.N,GND*
G36*
X145171190Y-95119611D02*
X142912425Y-92860847D01*
X142863049Y-92786951D01*
X142570310Y-92591348D01*
X142312165Y-92540000D01*
X142312161Y-92540000D01*
X142225000Y-92522663D01*
X142137839Y-92540000D01*
X139941644Y-92540000D01*
X139911488Y-92509844D01*
X139514726Y-92345500D01*
X139085274Y-92345500D01*
X138688512Y-92509844D01*
X138384844Y-92813512D01*
X138220500Y-93210274D01*
X138220500Y-93639726D01*
X138384844Y-94036488D01*
X138688512Y-94340156D01*
X139085274Y-94504500D01*
X139514726Y-94504500D01*
X139911488Y-94340156D01*
X139941644Y-94310000D01*
X141858422Y-94310000D01*
X146712577Y-99164156D01*
X146761951Y-99238049D01*
X146835844Y-99287423D01*
X146835845Y-99287424D01*
X146946880Y-99361615D01*
X147054690Y-99433652D01*
X147312835Y-99485000D01*
X147312839Y-99485000D01*
X147399999Y-99502337D01*
X147487159Y-99485000D01*
X147658356Y-99485000D01*
X147688512Y-99515156D01*
X148085274Y-99679500D01*
X148514726Y-99679500D01*
X148911488Y-99515156D01*
X149215156Y-99211488D01*
X149379500Y-98814726D01*
X149379500Y-98385274D01*
X149215156Y-97988512D01*
X148911488Y-97684844D01*
X148514726Y-97520500D01*
X148085274Y-97520500D01*
X147722390Y-97670811D01*
X147081720Y-97030141D01*
X173294884Y-97034829D01*
X153525641Y-111375937D01*
X156747079Y-108154500D01*
X156789726Y-108154500D01*
X157186488Y-107990156D01*
X157490156Y-107686488D01*
X157654500Y-107289726D01*
X157654500Y-106860274D01*
X157490156Y-106463512D01*
X157186488Y-106159844D01*
X156789726Y-105995500D01*
X156360274Y-105995500D01*
X155963512Y-106159844D01*
X155659844Y-106463512D01*
X155495500Y-106860274D01*
X155495500Y-106902921D01*
X155402440Y-106995981D01*
X155402440Y-102000000D01*
X155353157Y-101752235D01*
X155212809Y-101542191D01*
X155002765Y-101401843D01*
X154755000Y-101352560D01*
X148755000Y-101352560D01*
X148507235Y-101401843D01*
X148297191Y-101542191D01*
X148156843Y-101752235D01*
X148107560Y-102000000D01*
X148107560Y-108000000D01*
X148156843Y-108247765D01*
X148297191Y-108457809D01*
X148507235Y-108598157D01*
X148755000Y-108647440D01*
X150870000Y-108647440D01*
X150870000Y-109378421D01*
X146133422Y-114115000D01*
X143641644Y-114115000D01*
X143611488Y-114084844D01*
X143214726Y-113920500D01*
X142785274Y-113920500D01*
X142388512Y-114084844D01*
X142084844Y-114388512D01*
X141920500Y-114785274D01*
X141920500Y-115214726D01*
X142084844Y-115611488D01*
X142388512Y-115915156D01*
X142785274Y-116079500D01*
X143214726Y-116079500D01*
X143611488Y-115915156D01*
X143641644Y-115885000D01*
X146412839Y-115885000D01*
X146500000Y-115902337D01*
X146587161Y-115885000D01*
X146587165Y-115885000D01*
X146845310Y-115833652D01*
X147138049Y-115638049D01*
X147187425Y-115564153D01*
X147845500Y-114906078D01*
X147845500Y-114939726D01*
X148009844Y-115336488D01*
X148313512Y-115640156D01*
X148710274Y-115804500D01*
X149139726Y-115804500D01*
X149536488Y-115640156D01*
X149840156Y-115336488D01*
X150004500Y-114939726D01*
X150004500Y-114897078D01*
X151202350Y-113699228D01*
X159530156Y-139333634D01*
X137725409Y-123464678D01*
X137654701Y-123399365D01*
X137552479Y-123361696D01*
X137453590Y-123316011D01*
X137425439Y-123314882D01*
X137398999Y-123305139D01*
X137290146Y-123309457D01*
X137181300Y-123305092D01*
X137154857Y-123314823D01*
X137126703Y-123315940D01*
X137027786Y-123361586D01*
X136925558Y-123399207D01*
X136854828Y-123464484D01*
X115070178Y-139304371D01*
X121232739Y-120310274D01*
X132670500Y-120310274D01*
X132670500Y-120739726D01*
X132834844Y-121136488D01*
X133138512Y-121440156D01*
X133535274Y-121604500D01*
X133964726Y-121604500D01*
X134361488Y-121440156D01*
X134391644Y-121410000D01*
X142058356Y-121410000D01*
X142088512Y-121440156D01*
X142485274Y-121604500D01*
X142914726Y-121604500D01*
X143311488Y-121440156D01*
X143615156Y-121136488D01*
X143779500Y-120739726D01*
X143779500Y-120310274D01*
X143615156Y-119913512D01*
X143311488Y-119609844D01*
X142914726Y-119445500D01*
X142485274Y-119445500D01*
X142088512Y-119609844D01*
X142058356Y-119640000D01*
X134391644Y-119640000D01*
X134361488Y-119609844D01*
X133964726Y-119445500D01*
X133535274Y-119445500D01*
X133138512Y-119609844D01*
X132834844Y-119913512D01*
X132670500Y-120310274D01*
X121232739Y-120310274D01*
X123215001Y-114200597D01*
X123215001Y-117612835D01*
X123197663Y-117700000D01*
X123266348Y-118045309D01*
X123412576Y-118264154D01*
X123412578Y-118264156D01*
X123461952Y-118338049D01*
X123535845Y-118387423D01*
X123920500Y-118772078D01*
X123920500Y-118814726D01*
X124084844Y-119211488D01*
X124388512Y-119515156D01*
X124785274Y-119679500D01*
X125214726Y-119679500D01*
X125611488Y-119515156D01*
X125915156Y-119211488D01*
X126079500Y-118814726D01*
X126079500Y-118385274D01*
X125915156Y-117988512D01*
X125611488Y-117684844D01*
X125214726Y-117520500D01*
X125172078Y-117520500D01*
X124985000Y-117333422D01*
X124985000Y-111928449D01*
X125035845Y-111962423D01*
X128193078Y-115119657D01*
X128242452Y-115193550D01*
X128316345Y-115242924D01*
X128316346Y-115242925D01*
X128469574Y-115345309D01*
X128535191Y-115389153D01*
X128793336Y-115440501D01*
X128793339Y-115440501D01*
X128880500Y-115457838D01*
X128967661Y-115440501D01*
X130264019Y-115440501D01*
X130334844Y-115611488D01*
X130638512Y-115915156D01*
X131035274Y-116079500D01*
X131464726Y-116079500D01*
X131861488Y-115915156D01*
X132165156Y-115611488D01*
X132329500Y-115214726D01*
X132329500Y-114785274D01*
X132165156Y-114388512D01*
X131861488Y-114084844D01*
X131464726Y-113920500D01*
X131445587Y-113920500D01*
X131443550Y-113917452D01*
X131150811Y-113721849D01*
X130892666Y-113670501D01*
X130892662Y-113670501D01*
X130805501Y-113653164D01*
X130718340Y-113670501D01*
X129247080Y-113670501D01*
X126485000Y-110908422D01*
X126485000Y-108487161D01*
X126502337Y-108400000D01*
X126486017Y-108317949D01*
X134151656Y-108317949D01*
X134615990Y-108896524D01*
X136310672Y-109623218D01*
X138154447Y-109646068D01*
X139866619Y-108961598D01*
X139964010Y-108896524D01*
X140428344Y-108317949D01*
X137290000Y-105179605D01*
X134151656Y-108317949D01*
X126486017Y-108317949D01*
X126485000Y-108312839D01*
X126485000Y-108312835D01*
X126447607Y-108124846D01*
X126472440Y-108000000D01*
X126472440Y-105864447D01*
X132643932Y-105864447D01*
X133328402Y-107576619D01*
X133393476Y-107674010D01*
X133972051Y-108138344D01*
X137110395Y-105000000D01*
X137469605Y-105000000D01*
X140607949Y-108138344D01*
X141186524Y-107674010D01*
X141913218Y-105979328D01*
X141936068Y-104135553D01*
X141251598Y-102423381D01*
X141186524Y-102325990D01*
X140607949Y-101861656D01*
X137469605Y-105000000D01*
X137110395Y-105000000D01*
X133972051Y-101861656D01*
X133393476Y-102325990D01*
X132666782Y-104020672D01*
X132643932Y-105864447D01*
X126472440Y-105864447D01*
X126472440Y-102000000D01*
X126423157Y-101752235D01*
X126376262Y-101682051D01*
X134151656Y-101682051D01*
X137290000Y-104820395D01*
X140428344Y-101682051D01*
X139964010Y-101103476D01*
X138269328Y-100376782D01*
X136425553Y-100353932D01*
X134713381Y-101038402D01*
X134615990Y-101103476D01*
X134151656Y-101682051D01*
X126376262Y-101682051D01*
X126282809Y-101542191D01*
X126072765Y-101401843D01*
X125825000Y-101352560D01*
X119825000Y-101352560D01*
X119577235Y-101401843D01*
X119367191Y-101542191D01*
X119226843Y-101752235D01*
X119177560Y-102000000D01*
X119177560Y-108000000D01*
X119226843Y-108247765D01*
X119367191Y-108457809D01*
X119577235Y-108598157D01*
X119825000Y-108647440D01*
X124595861Y-108647440D01*
X124715000Y-108766579D01*
X124715000Y-109588356D01*
X124711488Y-109584844D01*
X124314726Y-109420500D01*
X123885274Y-109420500D01*
X123488512Y-109584844D01*
X123184844Y-109888512D01*
X123020500Y-110285274D01*
X123020500Y-110714726D01*
X123184844Y-111111488D01*
X123215000Y-111141644D01*
X123215000Y-112941154D01*
X123193358Y-112913725D01*
X123109719Y-112866932D01*
X104743275Y-99535274D01*
X121720500Y-99535274D01*
X121720500Y-99964726D01*
X121884844Y-100361488D01*
X122188512Y-100665156D01*
X122585274Y-100829500D01*
X123014726Y-100829500D01*
X123411488Y-100665156D01*
X123715156Y-100361488D01*
X123785981Y-100190501D01*
X125632338Y-100190501D01*
X125719499Y-100207838D01*
X125806660Y-100190501D01*
X125806664Y-100190501D01*
X126064809Y-100139153D01*
X126357548Y-99943550D01*
X126406924Y-99869654D01*
X126572078Y-99704500D01*
X126589726Y-99704500D01*
X126986488Y-99540156D01*
X127290156Y-99236488D01*
X127454500Y-98839726D01*
X127454500Y-98410274D01*
X127290156Y-98013512D01*
X126986488Y-97709844D01*
X126589726Y-97545500D01*
X126160274Y-97545500D01*
X125763512Y-97709844D01*
X125459844Y-98013512D01*
X125295500Y-98410274D01*
X125295500Y-98420501D01*
X123331660Y-98420501D01*
X123244499Y-98403164D01*
X123157338Y-98420501D01*
X123157334Y-98420501D01*
X122899189Y-98471849D01*
X122606450Y-98667452D01*
X122604413Y-98670500D01*
X122585274Y-98670500D01*
X122188512Y-98834844D01*
X121884844Y-99138512D01*
X121720500Y-99535274D01*
X104743275Y-99535274D01*
X101298498Y-97034813D01*
X128249639Y-97030006D01*
X128344737Y-97041270D01*
X128450067Y-97011574D01*
X128557387Y-96990207D01*
X128580389Y-96974832D01*
X128607022Y-96967323D01*
X128692971Y-96899577D01*
X128783944Y-96838768D01*
X128799312Y-96815760D01*
X128821043Y-96798631D01*
X128874525Y-96703151D01*
X128935302Y-96612157D01*
X128953966Y-96518239D01*
X135841417Y-75327000D01*
X138734600Y-75327000D01*
X145171190Y-95119611D01*
X145171190Y-95119611D01*
G37*
X145171190Y-95119611D02*
X142912425Y-92860847D01*
X142863049Y-92786951D01*
X142570310Y-92591348D01*
X142312165Y-92540000D01*
X142312161Y-92540000D01*
X142225000Y-92522663D01*
X142137839Y-92540000D01*
X139941644Y-92540000D01*
X139911488Y-92509844D01*
X139514726Y-92345500D01*
X139085274Y-92345500D01*
X138688512Y-92509844D01*
X138384844Y-92813512D01*
X138220500Y-93210274D01*
X138220500Y-93639726D01*
X138384844Y-94036488D01*
X138688512Y-94340156D01*
X139085274Y-94504500D01*
X139514726Y-94504500D01*
X139911488Y-94340156D01*
X139941644Y-94310000D01*
X141858422Y-94310000D01*
X146712577Y-99164156D01*
X146761951Y-99238049D01*
X146835844Y-99287423D01*
X146835845Y-99287424D01*
X146946880Y-99361615D01*
X147054690Y-99433652D01*
X147312835Y-99485000D01*
X147312839Y-99485000D01*
X147399999Y-99502337D01*
X147487159Y-99485000D01*
X147658356Y-99485000D01*
X147688512Y-99515156D01*
X148085274Y-99679500D01*
X148514726Y-99679500D01*
X148911488Y-99515156D01*
X149215156Y-99211488D01*
X149379500Y-98814726D01*
X149379500Y-98385274D01*
X149215156Y-97988512D01*
X148911488Y-97684844D01*
X148514726Y-97520500D01*
X148085274Y-97520500D01*
X147722390Y-97670811D01*
X147081720Y-97030141D01*
X173294884Y-97034829D01*
X153525641Y-111375937D01*
X156747079Y-108154500D01*
X156789726Y-108154500D01*
X157186488Y-107990156D01*
X157490156Y-107686488D01*
X157654500Y-107289726D01*
X157654500Y-106860274D01*
X157490156Y-106463512D01*
X157186488Y-106159844D01*
X156789726Y-105995500D01*
X156360274Y-105995500D01*
X155963512Y-106159844D01*
X155659844Y-106463512D01*
X155495500Y-106860274D01*
X155495500Y-106902921D01*
X155402440Y-106995981D01*
X155402440Y-102000000D01*
X155353157Y-101752235D01*
X155212809Y-101542191D01*
X155002765Y-101401843D01*
X154755000Y-101352560D01*
X148755000Y-101352560D01*
X148507235Y-101401843D01*
X148297191Y-101542191D01*
X148156843Y-101752235D01*
X148107560Y-102000000D01*
X148107560Y-108000000D01*
X148156843Y-108247765D01*
X148297191Y-108457809D01*
X148507235Y-108598157D01*
X148755000Y-108647440D01*
X150870000Y-108647440D01*
X150870000Y-109378421D01*
X146133422Y-114115000D01*
X143641644Y-114115000D01*
X143611488Y-114084844D01*
X143214726Y-113920500D01*
X142785274Y-113920500D01*
X142388512Y-114084844D01*
X142084844Y-114388512D01*
X141920500Y-114785274D01*
X141920500Y-115214726D01*
X142084844Y-115611488D01*
X142388512Y-115915156D01*
X142785274Y-116079500D01*
X143214726Y-116079500D01*
X143611488Y-115915156D01*
X143641644Y-115885000D01*
X146412839Y-115885000D01*
X146500000Y-115902337D01*
X146587161Y-115885000D01*
X146587165Y-115885000D01*
X146845310Y-115833652D01*
X147138049Y-115638049D01*
X147187425Y-115564153D01*
X147845500Y-114906078D01*
X147845500Y-114939726D01*
X148009844Y-115336488D01*
X148313512Y-115640156D01*
X148710274Y-115804500D01*
X149139726Y-115804500D01*
X149536488Y-115640156D01*
X149840156Y-115336488D01*
X150004500Y-114939726D01*
X150004500Y-114897078D01*
X151202350Y-113699228D01*
X159530156Y-139333634D01*
X137725409Y-123464678D01*
X137654701Y-123399365D01*
X137552479Y-123361696D01*
X137453590Y-123316011D01*
X137425439Y-123314882D01*
X137398999Y-123305139D01*
X137290146Y-123309457D01*
X137181300Y-123305092D01*
X137154857Y-123314823D01*
X137126703Y-123315940D01*
X137027786Y-123361586D01*
X136925558Y-123399207D01*
X136854828Y-123464484D01*
X115070178Y-139304371D01*
X121232739Y-120310274D01*
X132670500Y-120310274D01*
X132670500Y-120739726D01*
X132834844Y-121136488D01*
X133138512Y-121440156D01*
X133535274Y-121604500D01*
X133964726Y-121604500D01*
X134361488Y-121440156D01*
X134391644Y-121410000D01*
X142058356Y-121410000D01*
X142088512Y-121440156D01*
X142485274Y-121604500D01*
X142914726Y-121604500D01*
X143311488Y-121440156D01*
X143615156Y-121136488D01*
X143779500Y-120739726D01*
X143779500Y-120310274D01*
X143615156Y-119913512D01*
X143311488Y-119609844D01*
X142914726Y-119445500D01*
X142485274Y-119445500D01*
X142088512Y-119609844D01*
X142058356Y-119640000D01*
X134391644Y-119640000D01*
X134361488Y-119609844D01*
X133964726Y-119445500D01*
X133535274Y-119445500D01*
X133138512Y-119609844D01*
X132834844Y-119913512D01*
X132670500Y-120310274D01*
X121232739Y-120310274D01*
X123215001Y-114200597D01*
X123215001Y-117612835D01*
X123197663Y-117700000D01*
X123266348Y-118045309D01*
X123412576Y-118264154D01*
X123412578Y-118264156D01*
X123461952Y-118338049D01*
X123535845Y-118387423D01*
X123920500Y-118772078D01*
X123920500Y-118814726D01*
X124084844Y-119211488D01*
X124388512Y-119515156D01*
X124785274Y-119679500D01*
X125214726Y-119679500D01*
X125611488Y-119515156D01*
X125915156Y-119211488D01*
X126079500Y-118814726D01*
X126079500Y-118385274D01*
X125915156Y-117988512D01*
X125611488Y-117684844D01*
X125214726Y-117520500D01*
X125172078Y-117520500D01*
X124985000Y-117333422D01*
X124985000Y-111928449D01*
X125035845Y-111962423D01*
X128193078Y-115119657D01*
X128242452Y-115193550D01*
X128316345Y-115242924D01*
X128316346Y-115242925D01*
X128469574Y-115345309D01*
X128535191Y-115389153D01*
X128793336Y-115440501D01*
X128793339Y-115440501D01*
X128880500Y-115457838D01*
X128967661Y-115440501D01*
X130264019Y-115440501D01*
X130334844Y-115611488D01*
X130638512Y-115915156D01*
X131035274Y-116079500D01*
X131464726Y-116079500D01*
X131861488Y-115915156D01*
X132165156Y-115611488D01*
X132329500Y-115214726D01*
X132329500Y-114785274D01*
X132165156Y-114388512D01*
X131861488Y-114084844D01*
X131464726Y-113920500D01*
X131445587Y-113920500D01*
X131443550Y-113917452D01*
X131150811Y-113721849D01*
X130892666Y-113670501D01*
X130892662Y-113670501D01*
X130805501Y-113653164D01*
X130718340Y-113670501D01*
X129247080Y-113670501D01*
X126485000Y-110908422D01*
X126485000Y-108487161D01*
X126502337Y-108400000D01*
X126486017Y-108317949D01*
X134151656Y-108317949D01*
X134615990Y-108896524D01*
X136310672Y-109623218D01*
X138154447Y-109646068D01*
X139866619Y-108961598D01*
X139964010Y-108896524D01*
X140428344Y-108317949D01*
X137290000Y-105179605D01*
X134151656Y-108317949D01*
X126486017Y-108317949D01*
X126485000Y-108312839D01*
X126485000Y-108312835D01*
X126447607Y-108124846D01*
X126472440Y-108000000D01*
X126472440Y-105864447D01*
X132643932Y-105864447D01*
X133328402Y-107576619D01*
X133393476Y-107674010D01*
X133972051Y-108138344D01*
X137110395Y-105000000D01*
X137469605Y-105000000D01*
X140607949Y-108138344D01*
X141186524Y-107674010D01*
X141913218Y-105979328D01*
X141936068Y-104135553D01*
X141251598Y-102423381D01*
X141186524Y-102325990D01*
X140607949Y-101861656D01*
X137469605Y-105000000D01*
X137110395Y-105000000D01*
X133972051Y-101861656D01*
X133393476Y-102325990D01*
X132666782Y-104020672D01*
X132643932Y-105864447D01*
X126472440Y-105864447D01*
X126472440Y-102000000D01*
X126423157Y-101752235D01*
X126376262Y-101682051D01*
X134151656Y-101682051D01*
X137290000Y-104820395D01*
X140428344Y-101682051D01*
X139964010Y-101103476D01*
X138269328Y-100376782D01*
X136425553Y-100353932D01*
X134713381Y-101038402D01*
X134615990Y-101103476D01*
X134151656Y-101682051D01*
X126376262Y-101682051D01*
X126282809Y-101542191D01*
X126072765Y-101401843D01*
X125825000Y-101352560D01*
X119825000Y-101352560D01*
X119577235Y-101401843D01*
X119367191Y-101542191D01*
X119226843Y-101752235D01*
X119177560Y-102000000D01*
X119177560Y-108000000D01*
X119226843Y-108247765D01*
X119367191Y-108457809D01*
X119577235Y-108598157D01*
X119825000Y-108647440D01*
X124595861Y-108647440D01*
X124715000Y-108766579D01*
X124715000Y-109588356D01*
X124711488Y-109584844D01*
X124314726Y-109420500D01*
X123885274Y-109420500D01*
X123488512Y-109584844D01*
X123184844Y-109888512D01*
X123020500Y-110285274D01*
X123020500Y-110714726D01*
X123184844Y-111111488D01*
X123215000Y-111141644D01*
X123215000Y-112941154D01*
X123193358Y-112913725D01*
X123109719Y-112866932D01*
X104743275Y-99535274D01*
X121720500Y-99535274D01*
X121720500Y-99964726D01*
X121884844Y-100361488D01*
X122188512Y-100665156D01*
X122585274Y-100829500D01*
X123014726Y-100829500D01*
X123411488Y-100665156D01*
X123715156Y-100361488D01*
X123785981Y-100190501D01*
X125632338Y-100190501D01*
X125719499Y-100207838D01*
X125806660Y-100190501D01*
X125806664Y-100190501D01*
X126064809Y-100139153D01*
X126357548Y-99943550D01*
X126406924Y-99869654D01*
X126572078Y-99704500D01*
X126589726Y-99704500D01*
X126986488Y-99540156D01*
X127290156Y-99236488D01*
X127454500Y-98839726D01*
X127454500Y-98410274D01*
X127290156Y-98013512D01*
X126986488Y-97709844D01*
X126589726Y-97545500D01*
X126160274Y-97545500D01*
X125763512Y-97709844D01*
X125459844Y-98013512D01*
X125295500Y-98410274D01*
X125295500Y-98420501D01*
X123331660Y-98420501D01*
X123244499Y-98403164D01*
X123157338Y-98420501D01*
X123157334Y-98420501D01*
X122899189Y-98471849D01*
X122606450Y-98667452D01*
X122604413Y-98670500D01*
X122585274Y-98670500D01*
X122188512Y-98834844D01*
X121884844Y-99138512D01*
X121720500Y-99535274D01*
X104743275Y-99535274D01*
X101298498Y-97034813D01*
X128249639Y-97030006D01*
X128344737Y-97041270D01*
X128450067Y-97011574D01*
X128557387Y-96990207D01*
X128580389Y-96974832D01*
X128607022Y-96967323D01*
X128692971Y-96899577D01*
X128783944Y-96838768D01*
X128799312Y-96815760D01*
X128821043Y-96798631D01*
X128874525Y-96703151D01*
X128935302Y-96612157D01*
X128953966Y-96518239D01*
X135841417Y-75327000D01*
X138734600Y-75327000D01*
X145171190Y-95119611D01*
G04 #@! TD*
M02*
