G04 #@! TF.GenerationSoftware,KiCad,Pcbnew,(5.0.0)*
G04 #@! TF.CreationDate,2018-11-25T22:53:09-05:00*
G04 #@! TF.ProjectId,Blink_Badge,426C696E6B5F42616467652E6B696361,B*
G04 #@! TF.SameCoordinates,Original*
G04 #@! TF.FileFunction,Legend,Bot*
G04 #@! TF.FilePolarity,Positive*
%FSLAX46Y46*%
G04 Gerber Fmt 4.6, Leading zero omitted, Abs format (unit mm)*
G04 Created by KiCad (PCBNEW (5.0.0)) date 11/25/18 22:53:09*
%MOMM*%
%LPD*%
G01*
G04 APERTURE LIST*
%ADD10C,0.100000*%
%ADD11C,0.300000*%
%ADD12C,0.200000*%
%ADD13C,0.150000*%
G04 APERTURE END LIST*
D10*
X159900000Y-140450000D02*
X160475000Y-140025000D01*
X114100000Y-140075000D02*
X114625000Y-140475000D01*
X100250000Y-96350000D02*
X100050000Y-96975000D01*
X136950000Y-69700000D02*
X137625000Y-69700000D01*
X174250000Y-96350000D02*
X174475000Y-97025000D01*
X174250000Y-96350000D02*
X146290000Y-96345000D01*
D11*
X154532142Y-130478571D02*
X155032142Y-129764285D01*
X155389285Y-130478571D02*
X155389285Y-128978571D01*
X154817857Y-128978571D01*
X154675000Y-129050000D01*
X154603571Y-129121428D01*
X154532142Y-129264285D01*
X154532142Y-129478571D01*
X154603571Y-129621428D01*
X154675000Y-129692857D01*
X154817857Y-129764285D01*
X155389285Y-129764285D01*
X153889285Y-129692857D02*
X153389285Y-129692857D01*
X153175000Y-130478571D02*
X153889285Y-130478571D01*
X153889285Y-128978571D01*
X153175000Y-128978571D01*
X152746428Y-128978571D02*
X152246428Y-130478571D01*
X151746428Y-128978571D01*
X150103571Y-129907142D02*
X148960714Y-129907142D01*
D12*
X129333896Y-119687382D02*
X129320727Y-119604239D01*
X129246234Y-119402966D01*
X129184910Y-119284835D01*
X129075430Y-119131718D01*
X128869638Y-118908626D01*
X128677015Y-118768677D01*
X128401249Y-118641897D01*
X128221794Y-118585091D01*
X128090496Y-118563272D01*
X127876054Y-118554622D01*
X127792911Y-118567791D01*
X127788779Y-119079817D02*
X127705636Y-119092986D01*
X127587506Y-119154310D01*
X127412570Y-119395089D01*
X127390751Y-119526388D01*
X127403920Y-119609531D01*
X127465244Y-119727661D01*
X127561556Y-119797635D01*
X127741010Y-119854441D01*
X128738726Y-119696419D01*
X128283892Y-120322444D01*
X128424228Y-120939432D02*
X128341085Y-120952600D01*
X128126643Y-120943950D01*
X127995344Y-120922132D01*
X127815890Y-120865326D01*
X127540124Y-120738546D01*
X127347501Y-120598597D01*
X127141709Y-120375505D01*
X127032229Y-120222387D01*
X126970905Y-120104257D01*
X126896412Y-119902984D01*
X126883243Y-119819841D01*
X126403233Y-122708414D02*
X126486376Y-122695245D01*
X126639493Y-122585765D01*
X126709468Y-122489454D01*
X126766273Y-122309999D01*
X126739936Y-122143713D01*
X126678612Y-122025583D01*
X126520976Y-121837478D01*
X126376509Y-121732517D01*
X126148898Y-121640723D01*
X126017600Y-121618905D01*
X125851314Y-121645242D01*
X125698196Y-121754722D01*
X125628222Y-121851034D01*
X125571416Y-122030488D01*
X125584585Y-122113631D01*
X125764813Y-123789659D02*
X125528165Y-123102697D01*
X126184659Y-123211790D02*
X125173388Y-122477059D01*
X124893490Y-122862305D01*
X124871672Y-122993604D01*
X124884840Y-123076747D01*
X124946165Y-123194877D01*
X125090632Y-123299838D01*
X125221931Y-123321657D01*
X125305074Y-123308489D01*
X125423204Y-123247164D01*
X125703102Y-122861918D01*
X124569955Y-123510149D02*
X124486812Y-123523317D01*
X124368682Y-123584641D01*
X124193746Y-123825420D01*
X124171927Y-123956719D01*
X124185096Y-124039862D01*
X124246420Y-124157992D01*
X124342732Y-124227967D01*
X124522186Y-124284773D01*
X125519902Y-124126750D01*
X125065068Y-124752775D01*
X123598963Y-124644068D02*
X123528989Y-124740380D01*
X123507170Y-124871679D01*
X123520339Y-124954822D01*
X123581663Y-125072952D01*
X123739299Y-125261057D01*
X123980078Y-125435993D01*
X124207688Y-125527786D01*
X124338987Y-125549604D01*
X124422130Y-125536436D01*
X124540260Y-125475112D01*
X124610234Y-125378800D01*
X124632053Y-125247501D01*
X124618885Y-125164358D01*
X124557560Y-125046228D01*
X124399924Y-124858123D01*
X124159146Y-124683187D01*
X123931535Y-124591394D01*
X123800236Y-124569576D01*
X123717093Y-124582744D01*
X123598963Y-124644068D01*
X123109142Y-125318249D02*
X122654308Y-125944274D01*
X123284465Y-125887082D01*
X123179503Y-126031549D01*
X123157685Y-126162848D01*
X123170853Y-126245991D01*
X123232178Y-126364121D01*
X123472957Y-126539057D01*
X123604255Y-126560876D01*
X123687398Y-126547707D01*
X123805528Y-126486383D01*
X124015452Y-126197448D01*
X124037270Y-126066149D01*
X124024102Y-125983006D01*
X122470722Y-126399495D02*
X122387579Y-126412663D01*
X122269449Y-126473988D01*
X122094513Y-126714767D01*
X122072694Y-126846065D01*
X122085863Y-126929208D01*
X122147187Y-127047339D01*
X122243499Y-127117313D01*
X122422953Y-127174119D01*
X123420669Y-127016096D01*
X122965835Y-127642121D01*
X121316531Y-128798247D02*
X121259725Y-128977701D01*
X121272893Y-129060844D01*
X121334218Y-129178974D01*
X121478685Y-129283936D01*
X121609984Y-129305755D01*
X121693127Y-129292586D01*
X121811257Y-129231262D01*
X122091155Y-128846016D01*
X121079884Y-128111284D01*
X120834973Y-128448375D01*
X120813154Y-128579673D01*
X120826323Y-128662816D01*
X120887647Y-128780946D01*
X120983959Y-128850921D01*
X121115258Y-128872740D01*
X121198401Y-128859571D01*
X121316531Y-128798247D01*
X121561441Y-128461156D01*
X121102476Y-129599208D02*
X120752604Y-130080766D01*
X121461385Y-129712820D02*
X120205203Y-129315178D01*
X120971564Y-130387000D01*
X119820344Y-129844892D02*
X119400497Y-130422761D01*
X120621692Y-130868558D02*
X119610420Y-130133827D01*
X119260548Y-130615384D02*
X118840702Y-131193254D01*
X120061896Y-131639051D02*
X119050625Y-130904319D01*
X119077349Y-131880216D02*
X118832438Y-132217307D01*
X119257190Y-132746633D02*
X119607062Y-132265076D01*
X118595791Y-131530344D01*
X118245919Y-132011902D01*
X118522459Y-133757905D02*
X118285811Y-133070942D01*
X118942305Y-133180035D02*
X117931034Y-132445304D01*
X117651136Y-132830550D01*
X117629318Y-132961849D01*
X117642486Y-133044992D01*
X117703811Y-133163122D01*
X117848278Y-133268084D01*
X117979577Y-133289902D01*
X118062720Y-133276734D01*
X118180850Y-133215409D01*
X118460748Y-132830163D01*
X117586067Y-134034057D02*
X118067625Y-134383930D01*
X117301264Y-133312108D02*
X117586067Y-134034057D01*
X116811443Y-133986288D01*
X131012606Y-120907036D02*
X130999437Y-120823893D01*
X130924944Y-120622620D01*
X130863620Y-120504489D01*
X130754140Y-120351372D01*
X130548348Y-120128280D01*
X130355725Y-119988331D01*
X130079959Y-119861551D01*
X129900504Y-119804745D01*
X129769206Y-119782926D01*
X129554764Y-119774276D01*
X129471621Y-119787445D01*
X129962216Y-120732487D02*
X129402420Y-121502979D01*
X129893015Y-122448021D02*
X129809872Y-122461189D01*
X129595430Y-122452539D01*
X129464131Y-122430720D01*
X129284677Y-122373914D01*
X129008911Y-122247134D01*
X128816287Y-122107185D01*
X128610496Y-121884093D01*
X128501016Y-121730976D01*
X128439691Y-121612846D01*
X128365198Y-121411573D01*
X128352030Y-121328430D01*
X127481868Y-122829909D02*
X127062021Y-123407778D01*
X128283216Y-123853575D02*
X127271945Y-123118843D01*
X126677162Y-123937491D02*
X126537213Y-124130115D01*
X126515394Y-124261413D01*
X126541732Y-124427699D01*
X126699367Y-124615804D01*
X127036458Y-124860714D01*
X127264068Y-124952508D01*
X127430354Y-124926170D01*
X127548484Y-124864846D01*
X127688433Y-124672223D01*
X127710252Y-124540924D01*
X127683915Y-124374638D01*
X127526279Y-124186534D01*
X127189188Y-123941623D01*
X126961578Y-123849830D01*
X126795292Y-123876167D01*
X126677162Y-123937491D01*
X126117366Y-124707984D02*
X126953702Y-125683494D01*
X126091416Y-125351309D01*
X126673804Y-126068740D01*
X125487597Y-125574788D01*
X125965023Y-126436686D02*
X125615150Y-126918244D01*
X126323932Y-126550298D02*
X125067750Y-126152657D01*
X125834111Y-127224479D01*
X125169354Y-128139439D02*
X124932706Y-127452476D01*
X125589200Y-127561569D02*
X124577929Y-126826838D01*
X124298031Y-127212084D01*
X124276212Y-127343383D01*
X124289381Y-127426526D01*
X124350705Y-127544656D01*
X124495173Y-127649618D01*
X124626471Y-127671436D01*
X124709614Y-127658268D01*
X124827745Y-127596943D01*
X125107642Y-127211697D01*
X124854469Y-128572841D02*
X123843197Y-127838109D01*
X123668261Y-128078888D01*
X123611455Y-128258343D01*
X123637792Y-128424629D01*
X123699117Y-128542759D01*
X123856753Y-128730863D01*
X124001220Y-128835825D01*
X124228830Y-128927618D01*
X124360129Y-128949437D01*
X124526415Y-128923100D01*
X124679532Y-128813620D01*
X124854469Y-128572841D01*
X124106568Y-129500969D02*
X124049763Y-129680423D01*
X123874826Y-129921202D01*
X123756696Y-129982527D01*
X123673553Y-129995695D01*
X123542255Y-129973877D01*
X123445943Y-129903902D01*
X123384619Y-129785772D01*
X123371450Y-129702629D01*
X123393269Y-129571330D01*
X123485062Y-129343720D01*
X123506881Y-129212421D01*
X123493712Y-129129278D01*
X123432388Y-129011148D01*
X123336076Y-128941173D01*
X123204777Y-128919355D01*
X123121634Y-128932523D01*
X123003504Y-128993848D01*
X122828568Y-129234627D01*
X122771762Y-129414081D01*
X122085573Y-131269951D02*
X122028767Y-131449405D01*
X122041936Y-131532548D01*
X122103260Y-131650679D01*
X122247727Y-131755640D01*
X122379026Y-131777459D01*
X122462169Y-131764290D01*
X122580299Y-131702966D01*
X122860197Y-131317720D01*
X121848926Y-130582988D01*
X121604015Y-130920079D01*
X121582197Y-131051377D01*
X121595365Y-131134520D01*
X121656690Y-131252651D01*
X121753001Y-131322625D01*
X121884300Y-131344444D01*
X121967443Y-131331275D01*
X122085573Y-131269951D01*
X122330484Y-130932860D01*
X120974245Y-131786883D02*
X120834297Y-131979506D01*
X120812478Y-132110804D01*
X120838815Y-132277090D01*
X120996451Y-132465195D01*
X121333541Y-132710106D01*
X121561152Y-132801899D01*
X121727438Y-132775562D01*
X121845568Y-132714237D01*
X121985517Y-132521614D01*
X122007335Y-132390315D01*
X121980998Y-132224029D01*
X121823362Y-132035925D01*
X121486272Y-131791014D01*
X121258662Y-131699221D01*
X121092376Y-131725558D01*
X120974245Y-131786883D01*
X121101799Y-133130339D02*
X120751927Y-133611897D01*
X121460708Y-133243951D02*
X120204527Y-132846310D01*
X120970887Y-133918132D01*
X120306130Y-134833091D02*
X120069483Y-134146129D01*
X120725977Y-134255222D02*
X119714706Y-133520490D01*
X119434808Y-133905737D01*
X119412989Y-134037035D01*
X119426158Y-134120178D01*
X119487482Y-134238309D01*
X119631949Y-134343270D01*
X119763248Y-134365089D01*
X119846391Y-134351920D01*
X119964521Y-134290596D01*
X120244419Y-133905350D01*
X119991245Y-135266493D02*
X118979974Y-134531762D01*
X118805038Y-134772541D01*
X118748232Y-134951995D01*
X118774569Y-135118281D01*
X118835894Y-135236411D01*
X118993529Y-135424516D01*
X119137997Y-135529478D01*
X119365607Y-135621271D01*
X119496906Y-135643089D01*
X119663192Y-135616752D01*
X119816309Y-135507272D01*
X119991245Y-135266493D01*
D10*
X137290000Y-123995000D02*
X114625000Y-140475000D01*
X159900000Y-140450000D02*
X137290000Y-123995000D01*
X151840000Y-113445000D02*
X160475000Y-140025000D01*
X174475000Y-97025000D02*
X151840000Y-113445000D01*
X122740000Y-113445000D02*
X114100000Y-140075000D01*
X100050000Y-96975000D02*
X122740000Y-113445000D01*
X128290000Y-96345000D02*
X100250000Y-96350000D01*
X136950000Y-69700000D02*
X128290000Y-96345000D01*
X137625000Y-69700000D02*
X146290000Y-96345000D01*
G04 #@! TO.C,BT1*
X148070000Y-102000000D02*
X148070000Y-101370000D01*
X148070000Y-110460000D02*
X148070000Y-108000000D01*
X126510000Y-102000000D02*
X126510000Y-101370000D01*
X126510000Y-110460000D02*
X126510000Y-108000000D01*
X146615244Y-97411831D02*
G75*
G03X143290000Y-96450000I-2015244J-738169D01*
G01*
X148070000Y-101370000D02*
X146630000Y-97420000D01*
X145990000Y-112540000D02*
X148070000Y-110460000D01*
X145990000Y-112540000D02*
X128590000Y-112540000D01*
X128590000Y-112540000D02*
X126510000Y-110460000D01*
X126510000Y-101370000D02*
X127950000Y-97420000D01*
X131286646Y-96433470D02*
G75*
G03X127950000Y-97420000I-1306646J-1716530D01*
G01*
X131285399Y-96446464D02*
G75*
G03X143290000Y-96450000I6004601J7806464D01*
G01*
D13*
X147540000Y-105000000D02*
G75*
G03X147540000Y-105000000I-10250000J0D01*
G01*
G04 #@! TD*
G04 #@! TO.C,BT1*
X138075714Y-116428571D02*
X137932857Y-116476190D01*
X137885238Y-116523809D01*
X137837619Y-116619047D01*
X137837619Y-116761904D01*
X137885238Y-116857142D01*
X137932857Y-116904761D01*
X138028095Y-116952380D01*
X138409047Y-116952380D01*
X138409047Y-115952380D01*
X138075714Y-115952380D01*
X137980476Y-116000000D01*
X137932857Y-116047619D01*
X137885238Y-116142857D01*
X137885238Y-116238095D01*
X137932857Y-116333333D01*
X137980476Y-116380952D01*
X138075714Y-116428571D01*
X138409047Y-116428571D01*
X137551904Y-115952380D02*
X136980476Y-115952380D01*
X137266190Y-116952380D02*
X137266190Y-115952380D01*
X136123333Y-116952380D02*
X136694761Y-116952380D01*
X136409047Y-116952380D02*
X136409047Y-115952380D01*
X136504285Y-116095238D01*
X136599523Y-116190476D01*
X136694761Y-116238095D01*
G04 #@! TD*
M02*
