G04 #@! TF.GenerationSoftware,KiCad,Pcbnew,(5.0.0)*
G04 #@! TF.CreationDate,2018-11-25T22:53:09-05:00*
G04 #@! TF.ProjectId,Blink_Badge,426C696E6B5F42616467652E6B696361,B*
G04 #@! TF.SameCoordinates,Original*
G04 #@! TF.FileFunction,Legend,Top*
G04 #@! TF.FilePolarity,Positive*
%FSLAX46Y46*%
G04 Gerber Fmt 4.6, Leading zero omitted, Abs format (unit mm)*
G04 Created by KiCad (PCBNEW (5.0.0)) date 11/25/18 22:53:09*
%MOMM*%
%LPD*%
G01*
G04 APERTURE LIST*
%ADD10C,0.100000*%
%ADD11C,0.500000*%
%ADD12C,0.120000*%
%ADD13C,0.150000*%
G04 APERTURE END LIST*
D10*
X159900000Y-140450000D02*
X160475000Y-140025000D01*
X114100000Y-140075000D02*
X114625000Y-140475000D01*
X100250000Y-96350000D02*
X100050000Y-96975000D01*
X136950000Y-69700000D02*
X137625000Y-69700000D01*
X174250000Y-96350000D02*
X174475000Y-97025000D01*
X174250000Y-96350000D02*
X146290000Y-96345000D01*
D11*
X124789553Y-109214285D02*
X125200267Y-109357142D01*
X125914553Y-109357142D01*
X126218125Y-109214285D01*
X126378839Y-109071428D01*
X126557410Y-108785714D01*
X126593125Y-108500000D01*
X126485982Y-108214285D01*
X126360982Y-108071428D01*
X126093125Y-107928571D01*
X125539553Y-107785714D01*
X125271696Y-107642857D01*
X125146696Y-107500000D01*
X125039553Y-107214285D01*
X125075267Y-106928571D01*
X125253839Y-106642857D01*
X125414553Y-106500000D01*
X125718125Y-106357142D01*
X126432410Y-106357142D01*
X126843125Y-106500000D01*
X127718125Y-106357142D02*
X129432410Y-106357142D01*
X128200267Y-109357142D02*
X128575267Y-106357142D01*
X130253839Y-107785714D02*
X131253839Y-107785714D01*
X131485982Y-109357142D02*
X130057410Y-109357142D01*
X130432410Y-106357142D01*
X131860982Y-106357142D01*
X132771696Y-109357142D02*
X133146696Y-106357142D01*
X133878839Y-108500000D01*
X135146696Y-106357142D01*
X134771696Y-109357142D01*
X136075267Y-109214285D02*
X136485982Y-109357142D01*
X137200267Y-109357142D01*
X137503839Y-109214285D01*
X137664553Y-109071428D01*
X137843125Y-108785714D01*
X137878839Y-108500000D01*
X137771696Y-108214285D01*
X137646696Y-108071428D01*
X137378839Y-107928571D01*
X136825267Y-107785714D01*
X136557410Y-107642857D01*
X136432410Y-107500000D01*
X136325267Y-107214285D01*
X136360982Y-106928571D01*
X136539553Y-106642857D01*
X136700267Y-106500000D01*
X137003839Y-106357142D01*
X137718125Y-106357142D01*
X138128839Y-106500000D01*
X138878839Y-107357142D02*
X140021696Y-107357142D01*
X139432410Y-106357142D02*
X139110982Y-108928571D01*
X139218125Y-109214285D01*
X139485982Y-109357142D01*
X139771696Y-109357142D01*
X142057410Y-109357142D02*
X142253839Y-107785714D01*
X142146696Y-107500000D01*
X141878839Y-107357142D01*
X141307410Y-107357142D01*
X141003839Y-107500000D01*
X142075267Y-109214285D02*
X141771696Y-109357142D01*
X141057410Y-109357142D01*
X140789553Y-109214285D01*
X140682410Y-108928571D01*
X140718125Y-108642857D01*
X140896696Y-108357142D01*
X141200267Y-108214285D01*
X141914553Y-108214285D01*
X142218125Y-108071428D01*
X143485982Y-109357142D02*
X143735982Y-107357142D01*
X143664553Y-107928571D02*
X143843125Y-107642857D01*
X144003839Y-107500000D01*
X144307410Y-107357142D01*
X144593125Y-107357142D01*
X147628839Y-109357142D02*
X148003839Y-106357142D01*
X149057410Y-109357142D02*
X149432410Y-106357142D01*
D10*
X137290000Y-123995000D02*
X114625000Y-140475000D01*
X159900000Y-140450000D02*
X137290000Y-123995000D01*
X151840000Y-113445000D02*
X160475000Y-140025000D01*
X174475000Y-97025000D02*
X151840000Y-113445000D01*
X122740000Y-113445000D02*
X114100000Y-140075000D01*
X100050000Y-96975000D02*
X122740000Y-113445000D01*
X128290000Y-96345000D02*
X100250000Y-96350000D01*
X136950000Y-69700000D02*
X128290000Y-96345000D01*
X137625000Y-69700000D02*
X146290000Y-96345000D01*
G04 #@! TO.C,S1*
X135740000Y-110375000D02*
X135365000Y-110725000D01*
X135365000Y-110725000D02*
X135365000Y-111825000D01*
X135365000Y-111825000D02*
X134315000Y-111825000D01*
X139215000Y-110850000D02*
X139215000Y-110375000D01*
X139215000Y-110375000D02*
X138815000Y-110375000D01*
X135740000Y-119625000D02*
X135365000Y-119625000D01*
X135365000Y-119625000D02*
X135365000Y-119275000D01*
X139215000Y-119225000D02*
X139215000Y-119625000D01*
X139215000Y-119625000D02*
X138840000Y-119625000D01*
D12*
G04 #@! TO.C,C1*
X134300000Y-95920000D02*
X136300000Y-95920000D01*
X136300000Y-93880000D02*
X134300000Y-93880000D01*
G04 #@! TO.C,C2*
X151179095Y-103235859D02*
X150561061Y-101333746D01*
X148620905Y-101964141D02*
X149238939Y-103866254D01*
G04 #@! TO.C,C3*
X147509476Y-117187017D02*
X145891442Y-118362588D01*
X147090524Y-120012983D02*
X148708558Y-118837412D01*
G04 #@! TO.C,C4*
X129091442Y-121237412D02*
X130709476Y-122412983D01*
X131908558Y-120762588D02*
X130290524Y-119587017D01*
G04 #@! TO.C,C5*
X124161061Y-107566254D02*
X124779095Y-105664141D01*
X122838939Y-105033746D02*
X122220905Y-106935859D01*
G04 #@! TO.C,R7*
X122680087Y-130203433D02*
X121062053Y-129027863D01*
X122319913Y-127296567D02*
X123937947Y-128472137D01*
G04 #@! TO.C,R1*
X138250000Y-84820000D02*
X136250000Y-84820000D01*
X136250000Y-82680000D02*
X138250000Y-82680000D01*
G04 #@! TO.C,R3*
X161708613Y-99718295D02*
X162326647Y-101620408D01*
X160291387Y-102281705D02*
X159673353Y-100379592D01*
G04 #@! TO.C,R4*
X155218295Y-103991387D02*
X157120408Y-103373353D01*
X157781705Y-105408613D02*
X155879592Y-106026647D01*
G04 #@! TO.C,R5*
X153687947Y-129027863D02*
X152069913Y-130203433D01*
X150812053Y-128472137D02*
X152430087Y-127296567D01*
G04 #@! TO.C,R9*
X114826647Y-100379592D02*
X114208613Y-102281705D01*
X112173353Y-101620408D02*
X112791387Y-99718295D01*
G04 #@! TO.C,R8*
X122646567Y-123380087D02*
X123822137Y-121762053D01*
X125553433Y-123019913D02*
X124377863Y-124637947D01*
G04 #@! TO.C,R6*
X147677863Y-124062053D02*
X148853433Y-125680087D01*
X147122137Y-126937947D02*
X145946567Y-125319913D01*
G04 #@! TO.C,R10*
X118779592Y-99473353D02*
X120681705Y-100091387D01*
X120020408Y-102126647D02*
X118118295Y-101508613D01*
G04 #@! TO.C,R2*
X138230000Y-90300000D02*
X138230000Y-88300000D01*
X140370000Y-88300000D02*
X140370000Y-90300000D01*
G04 #@! TO.C,D1*
X138830000Y-76990000D02*
X138830000Y-78450000D01*
X135670000Y-76990000D02*
X135670000Y-80150000D01*
X135670000Y-76990000D02*
X136600000Y-76990000D01*
X138830000Y-76990000D02*
X137900000Y-76990000D01*
G04 #@! TO.C,D2*
X167961050Y-100267816D02*
X166572507Y-100718981D01*
X166984556Y-97262478D02*
X163979218Y-98238971D01*
X166984556Y-97262478D02*
X167271942Y-98146960D01*
X167961050Y-100267816D02*
X167673664Y-99383334D01*
G04 #@! TO.C,D3*
X154668470Y-135293554D02*
X155420856Y-134746913D01*
X157224964Y-133436152D02*
X156472578Y-133982793D01*
X157224964Y-133436152D02*
X155367562Y-130879659D01*
X154668470Y-135293554D02*
X153810303Y-134112389D01*
G04 #@! TO.C,D5*
X107515444Y-97262478D02*
X108903986Y-97713644D01*
X106538950Y-100267816D02*
X109544289Y-101244310D01*
X106538950Y-100267816D02*
X106826336Y-99383334D01*
X107515444Y-97262478D02*
X107228058Y-98146960D01*
G04 #@! TO.C,Q1*
X136830000Y-88040000D02*
X135900000Y-88040000D01*
X133670000Y-88040000D02*
X134600000Y-88040000D01*
X133670000Y-88040000D02*
X133670000Y-91200000D01*
X136830000Y-88040000D02*
X136830000Y-89500000D01*
G04 #@! TO.C,Q2*
X156811050Y-101967816D02*
X155422507Y-102418981D01*
X155834556Y-98962478D02*
X152829218Y-99938971D01*
X155834556Y-98962478D02*
X156121942Y-99846960D01*
X156811050Y-101967816D02*
X156523664Y-101083334D01*
G04 #@! TO.C,Q3*
X149968470Y-124943554D02*
X150720856Y-124396913D01*
X152524964Y-123086152D02*
X151772578Y-123632793D01*
X152524964Y-123086152D02*
X150667562Y-120529659D01*
X149968470Y-124943554D02*
X149110303Y-123762389D01*
G04 #@! TO.C,Q4*
X125375036Y-125586152D02*
X126233203Y-124404987D01*
X127931530Y-127443554D02*
X129788931Y-124887060D01*
X127931530Y-127443554D02*
X127179144Y-126896913D01*
X125375036Y-125586152D02*
X126127422Y-126132793D01*
G04 #@! TO.C,Q5*
X117465444Y-102762478D02*
X117178058Y-103646960D01*
X116488950Y-105767816D02*
X116776336Y-104883334D01*
X116488950Y-105767816D02*
X119494289Y-106744310D01*
X117465444Y-102762478D02*
X118853986Y-103213643D01*
G04 #@! TO.C,D4*
X117275036Y-133436152D02*
X118133203Y-132254987D01*
X119831530Y-135293554D02*
X121688931Y-132737060D01*
X119831530Y-135293554D02*
X119079144Y-134746913D01*
X117275036Y-133436152D02*
X118027422Y-133982793D01*
G04 #@! TD*
G04 #@! TO.C,S1*
D13*
X138011904Y-120345238D02*
X137869047Y-120297619D01*
X137630952Y-120297619D01*
X137535714Y-120345238D01*
X137488095Y-120392857D01*
X137440476Y-120488095D01*
X137440476Y-120583333D01*
X137488095Y-120678571D01*
X137535714Y-120726190D01*
X137630952Y-120773809D01*
X137821428Y-120821428D01*
X137916666Y-120869047D01*
X137964285Y-120916666D01*
X138011904Y-121011904D01*
X138011904Y-121107142D01*
X137964285Y-121202380D01*
X137916666Y-121250000D01*
X137821428Y-121297619D01*
X137583333Y-121297619D01*
X137440476Y-121250000D01*
X136488095Y-120297619D02*
X137059523Y-120297619D01*
X136773809Y-120297619D02*
X136773809Y-121297619D01*
X136869047Y-121154761D01*
X136964285Y-121059523D01*
X137059523Y-121011904D01*
G04 #@! TO.C,C1*
X135133333Y-93507142D02*
X135085714Y-93554761D01*
X134942857Y-93602380D01*
X134847619Y-93602380D01*
X134704761Y-93554761D01*
X134609523Y-93459523D01*
X134561904Y-93364285D01*
X134514285Y-93173809D01*
X134514285Y-93030952D01*
X134561904Y-92840476D01*
X134609523Y-92745238D01*
X134704761Y-92650000D01*
X134847619Y-92602380D01*
X134942857Y-92602380D01*
X135085714Y-92650000D01*
X135133333Y-92697619D01*
X136085714Y-93602380D02*
X135514285Y-93602380D01*
X135800000Y-93602380D02*
X135800000Y-92602380D01*
X135704761Y-92745238D01*
X135609523Y-92840476D01*
X135514285Y-92888095D01*
G04 #@! TO.C,C2*
X151173183Y-102011073D02*
X151113179Y-101980500D01*
X151023745Y-101859350D01*
X150994315Y-101768773D01*
X150995458Y-101618193D01*
X151056605Y-101498186D01*
X151132467Y-101423467D01*
X151298905Y-101319318D01*
X151434770Y-101275173D01*
X151630639Y-101261601D01*
X151735931Y-101277459D01*
X151855938Y-101338606D01*
X151945372Y-101459756D01*
X151974802Y-101550333D01*
X151973659Y-101700913D01*
X151943086Y-101760917D01*
X152060806Y-102123224D02*
X152120810Y-102153797D01*
X152195528Y-102229659D01*
X152269104Y-102456101D01*
X152253246Y-102561393D01*
X152222672Y-102621396D01*
X152146811Y-102696115D01*
X152056234Y-102725545D01*
X151905653Y-102724402D01*
X151185611Y-102357522D01*
X151376908Y-102946272D01*
G04 #@! TO.C,C3*
X148253536Y-119628881D02*
X148264071Y-119562366D01*
X148351655Y-119439872D01*
X148428705Y-119383893D01*
X148572268Y-119338448D01*
X148705297Y-119359518D01*
X148799801Y-119408577D01*
X148950285Y-119534686D01*
X149034254Y-119650260D01*
X149107689Y-119832348D01*
X149125144Y-119937387D01*
X149104074Y-120070416D01*
X149016490Y-120192910D01*
X148939441Y-120248889D01*
X148795877Y-120294334D01*
X148729363Y-120283799D01*
X148515670Y-120556777D02*
X148014850Y-120920644D01*
X148060604Y-120416519D01*
X147945030Y-120500488D01*
X147839991Y-120517943D01*
X147773477Y-120507408D01*
X147678972Y-120458348D01*
X147539024Y-120265725D01*
X147521569Y-120160686D01*
X147532103Y-120094172D01*
X147581163Y-119999668D01*
X147812311Y-119831729D01*
X147917350Y-119814274D01*
X147983864Y-119824809D01*
G04 #@! TO.C,C4*
X129816135Y-122224809D02*
X129882649Y-122214274D01*
X130026213Y-122259719D01*
X130103262Y-122315698D01*
X130190846Y-122438192D01*
X130211916Y-122571221D01*
X130194461Y-122676260D01*
X130121027Y-122858348D01*
X130037057Y-122973922D01*
X129886574Y-123100031D01*
X129792069Y-123149090D01*
X129659041Y-123170160D01*
X129515477Y-123124715D01*
X129438428Y-123068736D01*
X129350844Y-122946242D01*
X129340309Y-122879728D01*
X128786815Y-122183289D02*
X129178671Y-121643944D01*
X128755519Y-122631434D02*
X129367989Y-122193514D01*
X128867169Y-121829647D01*
G04 #@! TO.C,C5*
X122123811Y-106028092D02*
X122154384Y-106088096D01*
X122155527Y-106238676D01*
X122126097Y-106329253D01*
X122036663Y-106450403D01*
X121916656Y-106511549D01*
X121811364Y-106527408D01*
X121615496Y-106513836D01*
X121479630Y-106469690D01*
X121313192Y-106365542D01*
X121237330Y-106290823D01*
X121176184Y-106170816D01*
X121175040Y-106020236D01*
X121204471Y-105929659D01*
X121293904Y-105808509D01*
X121353908Y-105777936D01*
X121542918Y-104888026D02*
X121395767Y-105340910D01*
X121833936Y-105533349D01*
X121803363Y-105473346D01*
X121787504Y-105368054D01*
X121861080Y-105141612D01*
X121935798Y-105065750D01*
X121995802Y-105035177D01*
X122101094Y-105019318D01*
X122327536Y-105092894D01*
X122403398Y-105167612D01*
X122433971Y-105227616D01*
X122449829Y-105332908D01*
X122376254Y-105559350D01*
X122301535Y-105635212D01*
X122241531Y-105665785D01*
G04 #@! TO.C,R7*
X121400739Y-130231980D02*
X121390513Y-130813154D01*
X121863034Y-130567857D02*
X121275249Y-131376874D01*
X120967052Y-131152956D01*
X120917992Y-131058452D01*
X120907457Y-130991937D01*
X120924912Y-130886898D01*
X121008882Y-130771324D01*
X121103386Y-130722265D01*
X121169900Y-130711730D01*
X121274939Y-130729185D01*
X121583136Y-130953103D01*
X120543281Y-130845068D02*
X120003936Y-130453212D01*
X120938443Y-129896103D01*
G04 #@! TO.C,R1*
X137083333Y-82202380D02*
X136750000Y-81726190D01*
X136511904Y-82202380D02*
X136511904Y-81202380D01*
X136892857Y-81202380D01*
X136988095Y-81250000D01*
X137035714Y-81297619D01*
X137083333Y-81392857D01*
X137083333Y-81535714D01*
X137035714Y-81630952D01*
X136988095Y-81678571D01*
X136892857Y-81726190D01*
X136511904Y-81726190D01*
X138035714Y-82202380D02*
X137464285Y-82202380D01*
X137750000Y-82202380D02*
X137750000Y-81202380D01*
X137654761Y-81345238D01*
X137559523Y-81440476D01*
X137464285Y-81488095D01*
G04 #@! TO.C,R3*
X162518257Y-100231283D02*
X162868135Y-99767114D01*
X162341676Y-99687823D02*
X163292732Y-99378806D01*
X163410453Y-99741113D01*
X163394595Y-99846405D01*
X163364021Y-99906408D01*
X163288160Y-99981127D01*
X163152294Y-100025272D01*
X163047003Y-100009414D01*
X162986999Y-99978841D01*
X162912280Y-99902979D01*
X162794560Y-99540672D01*
X163572319Y-100239285D02*
X163763615Y-100828035D01*
X163298302Y-100628737D01*
X163342448Y-100764602D01*
X163326589Y-100869894D01*
X163296016Y-100929897D01*
X163220154Y-101004616D01*
X162993712Y-101078191D01*
X162888420Y-101062333D01*
X162828417Y-101031760D01*
X162753698Y-100955898D01*
X162665408Y-100684168D01*
X162681266Y-100578876D01*
X162711839Y-100518872D01*
G04 #@! TO.C,R4*
X157218257Y-106881283D02*
X157568135Y-106417114D01*
X157041676Y-106337823D02*
X157992732Y-106028806D01*
X158110453Y-106391113D01*
X158094595Y-106496405D01*
X158064021Y-106556408D01*
X157988160Y-106631127D01*
X157852294Y-106675272D01*
X157747003Y-106659414D01*
X157686999Y-106628841D01*
X157612280Y-106552979D01*
X157494560Y-106190672D01*
X158117166Y-107490463D02*
X157483129Y-107696475D01*
X158405898Y-107146301D02*
X157652996Y-107140585D01*
X157844293Y-107729334D01*
G04 #@! TO.C,R5*
X153368933Y-130036051D02*
X153918503Y-130225369D01*
X153831228Y-129700174D02*
X154419013Y-130509191D01*
X154110817Y-130733109D01*
X154005778Y-130750564D01*
X153939263Y-130740029D01*
X153844759Y-130690970D01*
X153760790Y-130575396D01*
X153743335Y-130470357D01*
X153753870Y-130403843D01*
X153802929Y-130309339D01*
X154111126Y-130085420D01*
X153224750Y-131376874D02*
X153609996Y-131096976D01*
X153368623Y-130683740D01*
X153358089Y-130750255D01*
X153309029Y-130844759D01*
X153116406Y-130984708D01*
X153011367Y-131002163D01*
X152944853Y-130991628D01*
X152850348Y-130942568D01*
X152710400Y-130749945D01*
X152692945Y-130644906D01*
X152703479Y-130578392D01*
X152752539Y-130483888D01*
X152945162Y-130343939D01*
X153050201Y-130326484D01*
X153116715Y-130337019D01*
G04 #@! TO.C,R9*
X115638192Y-101869983D02*
X115082302Y-102039851D01*
X115461610Y-102413444D02*
X114510554Y-102104427D01*
X114628275Y-101742120D01*
X114702993Y-101666258D01*
X114762997Y-101635685D01*
X114868289Y-101619827D01*
X115004154Y-101663972D01*
X115080016Y-101738691D01*
X115110589Y-101798694D01*
X115126447Y-101903986D01*
X115008726Y-102266293D01*
X115785342Y-101417099D02*
X115844203Y-101235946D01*
X115828345Y-101130654D01*
X115797771Y-101070650D01*
X115691336Y-100935928D01*
X115524898Y-100831779D01*
X115162591Y-100714059D01*
X115057299Y-100729917D01*
X114997295Y-100760490D01*
X114922577Y-100836352D01*
X114863716Y-101017505D01*
X114879574Y-101122797D01*
X114910148Y-101182801D01*
X114986009Y-101257519D01*
X115212451Y-101331095D01*
X115317743Y-101315237D01*
X115377747Y-101284663D01*
X115452465Y-101208802D01*
X115511326Y-101027648D01*
X115495468Y-100922356D01*
X115464894Y-100862353D01*
X115389033Y-100787634D01*
G04 #@! TO.C,R8*
X122200739Y-121831980D02*
X122190513Y-122413154D01*
X122663034Y-122167857D02*
X122075249Y-122976874D01*
X121767052Y-122752956D01*
X121717992Y-122658452D01*
X121707457Y-122591937D01*
X121724912Y-122486898D01*
X121808882Y-122371324D01*
X121903386Y-122322265D01*
X121969900Y-122311730D01*
X122074939Y-122329185D01*
X122383136Y-122553103D01*
X121402566Y-121958398D02*
X121451625Y-122052902D01*
X121462160Y-122119417D01*
X121444705Y-122224456D01*
X121416715Y-122262980D01*
X121322211Y-122312040D01*
X121255697Y-122322574D01*
X121150658Y-122305120D01*
X120996559Y-122193160D01*
X120947500Y-122098656D01*
X120936965Y-122032142D01*
X120954420Y-121927103D01*
X120982410Y-121888578D01*
X121076914Y-121839519D01*
X121143428Y-121828984D01*
X121248467Y-121846439D01*
X121402566Y-121958398D01*
X121507605Y-121975853D01*
X121574119Y-121965318D01*
X121668623Y-121916259D01*
X121780582Y-121762160D01*
X121798037Y-121657121D01*
X121787503Y-121590607D01*
X121738443Y-121496103D01*
X121584345Y-121384143D01*
X121479306Y-121366689D01*
X121412791Y-121377223D01*
X121318287Y-121426283D01*
X121206328Y-121580381D01*
X121188873Y-121685420D01*
X121199408Y-121751935D01*
X121248467Y-121846439D01*
G04 #@! TO.C,R6*
X145668933Y-126936051D02*
X146218503Y-127125369D01*
X146131228Y-126600174D02*
X146719013Y-127409191D01*
X146410817Y-127633109D01*
X146305778Y-127650564D01*
X146239263Y-127640029D01*
X146144759Y-127590970D01*
X146060790Y-127475396D01*
X146043335Y-127370357D01*
X146053870Y-127303843D01*
X146102929Y-127209339D01*
X146411126Y-126985420D01*
X145563275Y-128248884D02*
X145717373Y-128136925D01*
X145766433Y-128042421D01*
X145776968Y-127975907D01*
X145770048Y-127804353D01*
X145696613Y-127622265D01*
X145472695Y-127314068D01*
X145378191Y-127265009D01*
X145311676Y-127254474D01*
X145206637Y-127271929D01*
X145052539Y-127383888D01*
X145003479Y-127478392D01*
X144992945Y-127544906D01*
X145010400Y-127649945D01*
X145150348Y-127842568D01*
X145244853Y-127891628D01*
X145311367Y-127902163D01*
X145416406Y-127884708D01*
X145570504Y-127772749D01*
X145619564Y-127678245D01*
X145630099Y-127611730D01*
X145612644Y-127506691D01*
G04 #@! TO.C,R10*
X120031586Y-98851186D02*
X119475696Y-99021054D01*
X119855004Y-99394647D02*
X118903948Y-99085630D01*
X119021669Y-98723323D01*
X119096387Y-98647461D01*
X119156391Y-98616888D01*
X119261683Y-98601030D01*
X119397548Y-98645175D01*
X119473410Y-98719894D01*
X119503983Y-98779897D01*
X119519841Y-98885189D01*
X119402120Y-99247496D01*
X120325887Y-97945418D02*
X120149306Y-98488879D01*
X120237597Y-98217149D02*
X119286540Y-97908132D01*
X119392975Y-98042854D01*
X119454122Y-98162861D01*
X119469980Y-98268153D01*
X119566127Y-97047652D02*
X119595557Y-96957075D01*
X119670276Y-96881213D01*
X119730279Y-96850640D01*
X119835571Y-96834782D01*
X120031440Y-96848354D01*
X120257882Y-96921929D01*
X120424321Y-97026078D01*
X120500182Y-97100797D01*
X120530756Y-97160800D01*
X120546614Y-97266092D01*
X120517184Y-97356669D01*
X120442465Y-97432531D01*
X120382462Y-97463104D01*
X120277170Y-97478962D01*
X120081301Y-97465390D01*
X119854859Y-97391815D01*
X119688420Y-97287666D01*
X119612559Y-97212947D01*
X119581985Y-97152944D01*
X119566127Y-97047652D01*
G04 #@! TO.C,R2*
X141633333Y-89152380D02*
X141300000Y-88676190D01*
X141061904Y-89152380D02*
X141061904Y-88152380D01*
X141442857Y-88152380D01*
X141538095Y-88200000D01*
X141585714Y-88247619D01*
X141633333Y-88342857D01*
X141633333Y-88485714D01*
X141585714Y-88580952D01*
X141538095Y-88628571D01*
X141442857Y-88676190D01*
X141061904Y-88676190D01*
X142014285Y-88247619D02*
X142061904Y-88200000D01*
X142157142Y-88152380D01*
X142395238Y-88152380D01*
X142490476Y-88200000D01*
X142538095Y-88247619D01*
X142585714Y-88342857D01*
X142585714Y-88438095D01*
X142538095Y-88580952D01*
X141966666Y-89152380D01*
X142585714Y-89152380D01*
G04 #@! TO.C,D1*
X136661904Y-73152380D02*
X136661904Y-72152380D01*
X136900000Y-72152380D01*
X137042857Y-72200000D01*
X137138095Y-72295238D01*
X137185714Y-72390476D01*
X137233333Y-72580952D01*
X137233333Y-72723809D01*
X137185714Y-72914285D01*
X137138095Y-73009523D01*
X137042857Y-73104761D01*
X136900000Y-73152380D01*
X136661904Y-73152380D01*
X138185714Y-73152380D02*
X137614285Y-73152380D01*
X137900000Y-73152380D02*
X137900000Y-72152380D01*
X137804761Y-72295238D01*
X137709523Y-72390476D01*
X137614285Y-72438095D01*
G04 #@! TO.C,D2*
X170841676Y-97037823D02*
X171792732Y-96728806D01*
X171866308Y-96955248D01*
X171865165Y-97105828D01*
X171804018Y-97225835D01*
X171728156Y-97300554D01*
X171561718Y-97404702D01*
X171425852Y-97448848D01*
X171229984Y-97462420D01*
X171124692Y-97446561D01*
X171004685Y-97385415D01*
X170915251Y-97264265D01*
X170841676Y-97037823D01*
X171996457Y-97664004D02*
X172056461Y-97694577D01*
X172131179Y-97770439D01*
X172204755Y-97996881D01*
X172188897Y-98102173D01*
X172158323Y-98162176D01*
X172082462Y-98236895D01*
X171991885Y-98266325D01*
X171841304Y-98265182D01*
X171121262Y-97898302D01*
X171312559Y-98487052D01*
G04 #@! TO.C,D3*
X158731228Y-137000174D02*
X159319013Y-137809191D01*
X159126390Y-137949140D01*
X158982827Y-137994585D01*
X158849798Y-137973515D01*
X158755294Y-137924456D01*
X158604810Y-137798347D01*
X158520841Y-137682773D01*
X158447406Y-137500685D01*
X158429951Y-137395646D01*
X158451021Y-137262617D01*
X158538605Y-137140123D01*
X158731228Y-137000174D01*
X158587046Y-138340997D02*
X158086226Y-138704864D01*
X158131980Y-138200739D01*
X158016406Y-138284708D01*
X157911367Y-138302163D01*
X157844853Y-138291628D01*
X157750348Y-138242568D01*
X157610400Y-138049945D01*
X157592945Y-137944906D01*
X157603479Y-137878392D01*
X157652539Y-137783888D01*
X157883687Y-137615949D01*
X157988726Y-137598494D01*
X158055240Y-137609029D01*
G04 #@! TO.C,D5*
X104302155Y-98741763D02*
X103351099Y-98432746D01*
X103424674Y-98206304D01*
X103514108Y-98085154D01*
X103634115Y-98024007D01*
X103739407Y-98008149D01*
X103935276Y-98021721D01*
X104071141Y-98065866D01*
X104237579Y-98170015D01*
X104313441Y-98244734D01*
X104374588Y-98364741D01*
X104375731Y-98515321D01*
X104302155Y-98741763D01*
X103807267Y-97028806D02*
X103660116Y-97481690D01*
X104098285Y-97674129D01*
X104067712Y-97614126D01*
X104051853Y-97508834D01*
X104125429Y-97282392D01*
X104200147Y-97206530D01*
X104260151Y-97175957D01*
X104365443Y-97160098D01*
X104591885Y-97233674D01*
X104667747Y-97308392D01*
X104698320Y-97368396D01*
X104714178Y-97473688D01*
X104640603Y-97700130D01*
X104565884Y-97775992D01*
X104505880Y-97806565D01*
G04 #@! TO.C,Q1*
X132304761Y-89347619D02*
X132209523Y-89300000D01*
X132114285Y-89204761D01*
X131971428Y-89061904D01*
X131876190Y-89014285D01*
X131780952Y-89014285D01*
X131828571Y-89252380D02*
X131733333Y-89204761D01*
X131638095Y-89109523D01*
X131590476Y-88919047D01*
X131590476Y-88585714D01*
X131638095Y-88395238D01*
X131733333Y-88300000D01*
X131828571Y-88252380D01*
X132019047Y-88252380D01*
X132114285Y-88300000D01*
X132209523Y-88395238D01*
X132257142Y-88585714D01*
X132257142Y-88919047D01*
X132209523Y-89109523D01*
X132114285Y-89204761D01*
X132019047Y-89252380D01*
X131828571Y-89252380D01*
X133209523Y-89252380D02*
X132638095Y-89252380D01*
X132923809Y-89252380D02*
X132923809Y-88252380D01*
X132828571Y-88395238D01*
X132733333Y-88490476D01*
X132638095Y-88538095D01*
G04 #@! TO.C,Q2*
X154149753Y-97878646D02*
X154165611Y-97773354D01*
X154226757Y-97653347D01*
X154318477Y-97473337D01*
X154334336Y-97368045D01*
X154304905Y-97277468D01*
X154093179Y-97396332D02*
X154109037Y-97291040D01*
X154170183Y-97171033D01*
X154336622Y-97066884D01*
X154653641Y-96963879D01*
X154849509Y-96950307D01*
X154969516Y-97011453D01*
X155044235Y-97087315D01*
X155103095Y-97268469D01*
X155087237Y-97373761D01*
X155026091Y-97493768D01*
X154859652Y-97597916D01*
X154542633Y-97700922D01*
X154346764Y-97714494D01*
X154226757Y-97653347D01*
X154152039Y-97577486D01*
X154093179Y-97396332D01*
X155203815Y-97886648D02*
X155263818Y-97917221D01*
X155338537Y-97993083D01*
X155412112Y-98219525D01*
X155396254Y-98324817D01*
X155365681Y-98384821D01*
X155289819Y-98459539D01*
X155199242Y-98488969D01*
X155048662Y-98487826D01*
X154328620Y-98120947D01*
X154519916Y-98709696D01*
G04 #@! TO.C,Q3*
X152855166Y-121300987D02*
X152960205Y-121283532D01*
X153093234Y-121304602D01*
X153292777Y-121336206D01*
X153397816Y-121318751D01*
X153474866Y-121262772D01*
X153296392Y-121098138D02*
X153401431Y-121080683D01*
X153534460Y-121101753D01*
X153684944Y-121227862D01*
X153880872Y-121497534D01*
X153954306Y-121679622D01*
X153933237Y-121812651D01*
X153884177Y-121907155D01*
X153730079Y-122019114D01*
X153625040Y-122036569D01*
X153492011Y-122015500D01*
X153341527Y-121889391D01*
X153145599Y-121619719D01*
X153072164Y-121437630D01*
X153093234Y-121304602D01*
X153142294Y-121210097D01*
X153296392Y-121098138D01*
X153267783Y-122354992D02*
X152766963Y-122718859D01*
X152812718Y-122214733D01*
X152697144Y-122298703D01*
X152592105Y-122316158D01*
X152525590Y-122305623D01*
X152431086Y-122256563D01*
X152291137Y-122063940D01*
X152273682Y-121958901D01*
X152284217Y-121892387D01*
X152333277Y-121797883D01*
X152564424Y-121629944D01*
X152669463Y-121612489D01*
X152735978Y-121623024D01*
G04 #@! TO.C,Q4*
X129898931Y-127312946D02*
X129947991Y-127407450D01*
X129969060Y-127540479D01*
X130000665Y-127740022D01*
X130049724Y-127834526D01*
X130126774Y-127890506D01*
X130228198Y-127669893D02*
X130277257Y-127764397D01*
X130298327Y-127897426D01*
X130224892Y-128079514D01*
X130028964Y-128349186D01*
X129878480Y-128475295D01*
X129745452Y-128496365D01*
X129640413Y-128478910D01*
X129486314Y-128366951D01*
X129437255Y-128272447D01*
X129416185Y-128139418D01*
X129489619Y-127957330D01*
X129685548Y-127687657D01*
X129836032Y-127561549D01*
X129969060Y-127540479D01*
X130074099Y-127557934D01*
X130228198Y-127669893D01*
X128796176Y-127453514D02*
X129188033Y-126914169D01*
X128764881Y-127901659D02*
X129377351Y-127463739D01*
X128876531Y-127099872D01*
G04 #@! TO.C,Q5*
X117391386Y-107459800D02*
X117316667Y-107535662D01*
X117196660Y-107596808D01*
X117016650Y-107688528D01*
X116941931Y-107764390D01*
X116912501Y-107854967D01*
X117153658Y-107883254D02*
X117078940Y-107959115D01*
X116958933Y-108020262D01*
X116763064Y-108006690D01*
X116446045Y-107903684D01*
X116279607Y-107799536D01*
X116218460Y-107679529D01*
X116202602Y-107574237D01*
X116261462Y-107393083D01*
X116336181Y-107317221D01*
X116456188Y-107256075D01*
X116652056Y-107269647D01*
X116969075Y-107372652D01*
X117135514Y-107476801D01*
X117196660Y-107596808D01*
X117212519Y-107702100D01*
X117153658Y-107883254D01*
X116614624Y-106306161D02*
X116467473Y-106759045D01*
X116905642Y-106951485D01*
X116875069Y-106891481D01*
X116859211Y-106786189D01*
X116932786Y-106559747D01*
X117007505Y-106483886D01*
X117067508Y-106453312D01*
X117172800Y-106437454D01*
X117399242Y-106511030D01*
X117475104Y-106585748D01*
X117505677Y-106645752D01*
X117521536Y-106751044D01*
X117447960Y-106977486D01*
X117373242Y-107053347D01*
X117313238Y-107083921D01*
G04 #@! TO.C,D4*
X116963034Y-137867857D02*
X116375249Y-138676874D01*
X116182626Y-138536925D01*
X116095042Y-138414431D01*
X116073972Y-138281403D01*
X116091427Y-138176364D01*
X116164861Y-137994275D01*
X116248831Y-137878701D01*
X116399314Y-137752593D01*
X116493818Y-137703533D01*
X116626847Y-137682464D01*
X116770411Y-137727908D01*
X116963034Y-137867857D01*
X115415439Y-137567509D02*
X115807295Y-137028164D01*
X115384143Y-138015654D02*
X115996613Y-137577734D01*
X115495793Y-137213867D01*
G04 #@! TD*
M02*
